<svg xmlns="http://www.w3.org/2000/svg" width="310.906" height="63.9" viewBox="0 0 310.906 63.9">
  <g id="bootstrap-logo-vector" transform="translate(-218.8 -278.9)">
    <path id="Shape" d="M218.8,279.054a2.253,2.253,0,0,1,.695-.154c8.644,0,17.21,0,25.853.154a13.918,13.918,0,0,1,8.026,2.855c5.479,4.013,6.02,15.358-1.543,19.448-.386.232-.772.386-1.312.695a32.5,32.5,0,0,1,4.013,1.929c4.553,3.087,6.405,9.955,4.322,15.975-1.775,5.248-6.02,7.486-10.882,8.643a27.021,27.021,0,0,1-4.939.617c-8.026.077-16.129,0-24.233,0Q218.8,304.213,218.8,279.054Zm8.566,42.832c6.02,0,11.808.154,17.6-.077,3.627-.154,6.251-4.09,6.1-7.949-.232-3.859-2.547-7.1-6.1-7.254-5.788-.309-11.5-.232-17.287-.232-.077,0-.154.154-.309.232Zm.077-22.072c5.325,0,10.5.232,15.666-.077,3.782-.231,5.942-3.241,5.788-7.486-.154-3.7-2.315-5.942-6.174-6.1-4.862-.154-9.724-.077-14.663-.077a1.815,1.815,0,0,0-.617.154v13.583Zm266.713-6.868h7.177v3.936c.772-.617,1.775-1.312,2.7-2.084,5.479-4.785,18.522-4.245,23,5.479,3.859,8.335,3.7,16.747-1.543,24.464-2.855,4.322-7.332,5.865-12.348,5.557-4.4-.232-8.258-1.621-11.267-5.788V342.8h-7.717Zm7.254,18.367a42.863,42.863,0,0,0,1,5.479,9.687,9.687,0,0,0,8.026,7.177c4.708.309,8.1-1.466,9.8-5.711,2.161-5.4,2.084-10.881-1.08-15.9a9.14,9.14,0,0,0-15.821.772,17.5,17.5,0,0,0-1.929,8.18Zm-12.348,12.734c0,1.466.077,3.01,0,4.553,0,.386-.463,1-.772,1a39.133,39.133,0,0,1-6.714.309c-1.929-.232-3.01-1.929-3.627-3.859-4.63,3.859-9.955,4.63-15.589,3.936-4.708-.617-8.643-4.553-8.952-8.952-.463-6.02,1.775-9.955,7.1-11.422,3.7-1,7.64-1.389,11.422-2.084.926-.154,1.852-.309,2.778-.54,1.775-.463,3.01-1.466,3.087-3.473a4.142,4.142,0,0,0-2.547-4.476,11.935,11.935,0,0,0-9.878.232c-1.466.695-2.315,2.084-3.087,4.553h-7.563a10.625,10.625,0,0,1,2.933-7.486c2.547-2.778,5.865-3.859,9.415-4.167a25.484,25.484,0,0,1,11.036.849c4.862,1.7,7.177,4.939,7.177,10.187v16.67c-.077,3.859-.077,3.859,3.781,4.167Zm-11.73-12.5c-2.392.386-4.553.772-6.714,1.235a50.308,50.308,0,0,0-6.714,1.7c-2.084.772-2.855,2.778-2.778,4.939.077,2.084,1.466,3.241,3.241,3.859a11.459,11.459,0,0,0,9.029-.463c2.084-1,3.7-2.624,3.859-5.093a55.164,55.164,0,0,0,.077-6.174ZM282.777,291.865c11.885-.154,18.83,8.721,18.059,20.76a19.279,19.279,0,0,1-4.09,11.422,16,16,0,0,1-11.19,5.942,19.474,19.474,0,0,1-10.882-1.466c-5.171-2.392-8.18-6.56-9.415-12.193a23.817,23.817,0,0,1,.154-11.422C267.574,296.65,273.9,291.942,282.777,291.865Zm-10.341,19.294c.309,1.775.463,3.55.926,5.325,1.235,4.4,4.63,7.254,8.489,7.486,4.785.231,8.1-1.852,9.955-6.328a16.734,16.734,0,0,0-.154-13.351c-2.855-6.483-10.5-8.181-15.435-3.319C273.362,303.6,272.667,307.223,272.436,311.159Zm51.475-19.294c10.727,0,17.982,7.331,18.136,18.29.077,4.63-.695,9.029-3.319,12.888-3.781,5.557-9.261,7.486-15.589,7.177a19.733,19.733,0,0,1-6.946-1.544c-5.093-2.007-8.18-6.1-9.492-11.422a24.869,24.869,0,0,1,.463-14.046C309.4,296.11,315.808,291.865,323.911,291.865Zm10.264,18.29a30.23,30.23,0,0,0-.849-4.63,9.728,9.728,0,0,0-9.106-7.409,9.422,9.422,0,0,0-9.338,6.56c-1.852,5.093-1.7,10.11,1.08,14.817a9.266,9.266,0,0,0,13.969,2.315c3.318-2.778,4.09-6.637,4.245-11.653Zm66.138-7.1h-7.177a1.113,1.113,0,0,1-.849-.54c-1.312-3.782-4.476-4.245-7.717-4.245a10.4,10.4,0,0,0-4.013.849c-2.7,1.158-2.933,4.245-.463,5.711a28.144,28.144,0,0,0,5.711,2.161c2.778.772,5.634,1.312,8.412,2.084,7.023,2.161,9.8,9.338,5.865,15.28a12.439,12.439,0,0,1-7.949,5.171,24.071,24.071,0,0,1-14.2-.463c-5.016-1.852-7.64-5.557-8.026-11.113h7.64c2.161,5.788,8.335,8.026,14.046,5.094a3.716,3.716,0,0,0,2.315-3.241,3.563,3.563,0,0,0-2.084-3.782c-2.7-1-5.479-1.7-8.258-2.547a63.144,63.144,0,0,1-6.791-2.084c-4.245-1.7-6.1-4.63-6.1-9.184a9.042,9.042,0,0,1,6.251-8.721c5.479-2.007,11.113-2.315,16.592-.077a11.163,11.163,0,0,1,6.868,8.335C400.39,302.052,400.313,302.438,400.313,303.055Zm-41.442-10.264h7.1v5.865h-6.946a14.32,14.32,0,0,0-.077,1.7v17.827c0,.772.077,1.621.154,2.392a2.637,2.637,0,0,0,2.547,2.624c1.389.077,2.855,0,4.4,0v5.865a20.4,20.4,0,0,1-9.647.077c-3.7-.849-5.171-3.473-5.248-8.335-.077-6.714,0-13.351,0-20.065v-1.929h-5.865v-5.942h5.788V281.987h7.949C358.871,285.537,358.871,289.087,358.871,292.791Zm66.061,36.581c-3.01,0-5.942.077-8.8,0a5.911,5.911,0,0,1-5.557-4.785,26.059,26.059,0,0,1-.54-4.862c-.077-6.251,0-12.579,0-18.831v-2.007h-5.865v-5.865h5.788V282.064h7.949v10.8h7.023v5.942h-6.714a10.562,10.562,0,0,0-.154,1.235v19.216c0,3.4.926,4.167,4.167,4.167h2.778l-.077,5.942Zm13.2-36.426v6.174c3.01-5.248,7.254-8.026,13.505-7.1v7.64c-2.933-.463-5.788-.54-8.335,1.312-3.318,2.392-4.476,6.02-4.553,9.878-.154,6.02,0,12.116,0,18.29h-7.795V292.869C433.266,292.946,435.582,292.946,438.128,292.946Z" transform="translate(0 0)" fill="#7c3d72"/>
  </g>
</svg>
