<svg xmlns="http://www.w3.org/2000/svg" width="174.731" height="92.789" viewBox="0 0 174.731 92.789">
  <g id="logo-java-text-color" transform="translate(-457.138 -210.211)">
    <path id="path14" d="M585.883,308.437c-.046,1.2-2.866,2.8-3.789,3.384-4.25,2.688-10.356,4.471-14.34.487-3.854-3.852-2.769-11.047,1.388-13.595a17.806,17.806,0,0,1,7.646-2.1,63.975,63.975,0,0,1,9.049-.357Zm-28.739-37.149,1.663,6.556c2.8-.682,4.489-1.67,8.711-2.5a33.124,33.124,0,0,1,10.385-.547c3.548.456,5.527,1.784,6.744,4.416a14.387,14.387,0,0,1,1.124,4.529l-.041,5.3c-.231.123-10.606.779-12.093.967-10.353,1.328-20.774,6.954-19.154,19.963,1.008,8.094,5.371,11.78,13.547,12.768a19.619,19.619,0,0,0,11.155-1.545,30.012,30.012,0,0,0,4.344-2.261,39.782,39.782,0,0,0,3.676-2.888l1.1,5.561h8.4c.157-1.7.031-22.5.031-24.815V284.35c0-4.018-.3-7.188-2.186-10.172-5.691-9.06-18.066-8.632-28.289-6.166-2.287.55-7.715,2.046-9.113,3.276" transform="translate(-65.899 -38.163)" fill="#00c2ff" fill-rule="evenodd"/>
    <path id="path16" d="M899.73,309.207c-.725.41-1.485,1.143-2.316,1.748a18.95,18.95,0,0,1-8.432,3.673c-9.258,1.143-11.435-8.4-8.46-13.322,3.179-5.254,13.26-4.966,19.237-4.99Zm-28.686-37.836a36.439,36.439,0,0,0,1.738,6.53c1.559-.316,4.989-1.76,8.743-2.495,5.448-1.08,14.4-1.981,17.02,3.89,1.068,2.4,1.841,9.039,1.087,9.8-.47.345-5.016.379-6.06.449-6.011.378-10.984.834-16.2,3.58-5.532,2.9-10.131,7.985-8.991,16.964,1.036,8.157,5.4,11.719,13.551,12.734,5.992.752,10.7-.8,15.5-3.813a35.18,35.18,0,0,0,3.683-2.924l1.056,5.589,8.451.01v-37.25c0-4.2-.328-7.125-2.239-10.259-5.505-9.02-18.216-8.417-28.207-6.084-2.341.542-7.68,2.032-9.138,3.281" transform="translate(-278.759 -38.246)" fill="#00c2ff" fill-rule="evenodd"/>
    <path id="path18" d="M723.626,324.249l13.469,0c.446-.108,1.393-2.28,1.654-2.8.508-1.046.908-1.993,1.386-3.035.906-1.972,1.743-4.172,2.531-6.276a251.08,251.08,0,0,0,8.121-27.3c.55-2.239,3.141-13.042,3.141-14.587l-10.068-.007c-2.2-.027-1.306-.3-1.9,4.179a116.885,116.885,0,0,1-2.7,13.682c-.824,3.2-6.53,23.54-7.668,24.852l-2.875-10.9c-1.08-3.625-2.068-7.115-3.2-10.673l-4.97-15.8c-.566-1.779-1.106-3.683-1.762-5.312l-11.9-.029c.051,1.051,7.817,25.334,8.343,27.047,1.424,4.623,2.8,8.868,4.2,13.414,1.362,4.479,2.963,9.1,4.2,13.542" transform="translate(-169.358 -40.703)" fill="#00c2ff" fill-rule="evenodd"/>
    <path id="path20" d="M468.686,228.4l.007,46.748c0,8.692-2.837,18.6-11.555,21.448.508,1.058,4.266,4.91,5.264,6.4,2.955-.523,7.3-3.23,8.928-4.78a24.174,24.174,0,0,0,5.886-7.974c3.693-7.528,3.1-15.5,3.1-24.533,0-18.449.1-36.918,0-55.367-1.359-.244-9.341-.085-11.63-.08V228.4" fill="#00c2ff" fill-rule="evenodd"/>
  </g>
</svg>
